<?xml version="1.0" encoding="utf-8"?>
<svg viewBox="0 0 200 200" fill="none" xmlns="http://www.w3.org/2000/svg">
  <defs>
    <linearGradient id="lightGradient" x1="0%" y1="0%" x2="100%" y2="100%">
      <stop offset="0" style="stop-color:#ffffff;stop-opacity:1"/>
      <stop offset="1" style="stop-color:#e0e0e0;stop-opacity:1"/>
    </linearGradient>
  </defs>
  <path d="M 15.386 102.77 C 15.386 76.824 29.959 38.61 57.04 57.366 L 140.348 57.366 C 167.773 38.61 182.002 76.824 182.002 102.77 C 182.002 128.717 168.117 143.852 140.348 148.177 L 57.04 148.177 C 29.273 143.852 15.386 128.717 15.386 102.77 Z" opacity="0.95" style="fill: rgb(80, 146, 165);"/>
  <circle cx="142.875" cy="77.38" r="6.769" style="fill: rgb(248, 248, 248);"/>
  <circle cx="45.585" cy="95.521" r="14.081" opacity="0.3" style="fill: rgb(0, 0, 0);"/>
  <circle cx="49.105" cy="92.001" r="8.801" fill="url(#lightGradient)" style=""/>
  <circle cx="127.091" cy="122.076" r="14.081" opacity="0.3" style="fill: rgb(0, 0, 0);"/>
  <circle cx="130.61" cy="118.555" r="8.801" fill="url(#lightGradient)" style=""/>
  <line x1="89.406" y1="75.051" x2="107.008" y2="75.051" stroke-width="2" opacity="0.3" style="stroke: rgb(189, 189, 189);"/>
  <line x1="98.206" y1="66.25" x2="98.206" y2="83.852" stroke-width="2" opacity="0.3" style="stroke: rgb(189, 189, 189);"/>
  <circle cx="157.438" cy="87.218" r="6.769" style="fill: rgb(255, 255, 255);"/>
  <rect x="135.553" y="166.186" width="9.634" height="31.032" rx="2" style="fill: rgb(255, 255, 255); transform-box: fill-box; transform-origin: 50% 50%;" transform="matrix(0, -1, 1, 0, -65.764358, -59.410231)"/>
  <rect x="69.979" y="106.542" width="9.634" height="31.032" rx="2" style="fill: rgb(255, 255, 255); transform-origin: 74.795px 122.058px;"/>
  <circle cx="140.803" cy="93.986" r="6.769" style="fill: rgb(255, 255, 255);"/>
  <circle cx="155.38" cy="104.428" r="6.769" style="fill: rgb(255, 255, 255);"/>
</svg>